<svg width="16" height="16" viewBox="0 0 16 16" fill="none" xmlns="http://www.w3.org/2000/svg">
<path fill-rule="evenodd" clip-rule="evenodd" d="M11 -0.000244141H5V0.998779V0.999756V1.99878H11V0.999756V0.998779V-0.000244141ZM12 0.999756V1.99878V2.99878H11H5H4V1.99878V0.999756H2.5C1.67157 0.999756 1 1.67133 1 2.49976V14.4998C1 15.3282 1.67157 15.9998 2.5 15.9998H13.5C14.3284 15.9998 15 15.3282 15 14.4998V2.49976C15 1.67133 14.3284 0.999756 13.5 0.999756H12ZM10.4275 12.0899C10.0582 12.4389 9.57744 12.6742 9.01655 12.7933C8.77269 12.8447 8.66121 12.9448 8.67514 13.1422C8.68297 13.2881 8.67907 13.4324 8.67516 13.5774L8.67516 13.5775C8.67385 13.6261 8.67253 13.6749 8.67166 13.7238C8.67166 13.897 8.55669 13.9889 8.33721 13.9943L8.33706 13.9943C8.19428 13.9971 8.05149 13.9998 7.90871 13.9998C7.78329 13.9998 7.65787 13.9998 7.53246 13.9971C7.29556 13.9943 7.18408 13.8888 7.18408 13.7103C7.18059 13.5696 7.18059 13.4263 7.18059 13.2856C7.17711 12.9718 7.16317 12.961 6.77647 12.9123C6.28178 12.8501 5.79404 12.7635 5.34115 12.5931C4.9858 12.4578 4.94748 12.3902 5.04851 12.098L5.04852 12.098L5.04852 12.098C5.12516 11.8816 5.2018 11.6652 5.28889 11.4515C5.3516 11.2946 5.41083 11.2243 5.51882 11.2243C5.58153 11.2243 5.66166 11.2486 5.76966 11.2919C6.27132 11.4948 6.80434 11.6084 7.36523 11.6625C7.4593 11.6706 7.55336 11.676 7.64742 11.676C7.90871 11.676 8.16302 11.6382 8.41037 11.5543C9.03397 11.3433 9.13152 10.7833 8.60546 10.4479C8.42779 10.3343 8.22225 10.2504 8.00974 10.1774C7.8397 10.1194 7.66764 10.0658 7.49577 10.0123L7.49574 10.0123C7.11475 9.8936 6.73463 9.77522 6.37932 9.60931C5.54321 9.21977 5.01367 8.68686 5.07638 7.89696C5.14606 7.00426 5.79753 6.44701 6.85312 6.14944L6.8665 6.1457C7.28866 6.02773 7.29208 6.02677 7.29208 5.67875C7.29208 5.64903 7.29186 5.61932 7.29164 5.58956C7.29099 5.50012 7.29033 5.4103 7.29556 5.31896C7.30601 5.05386 7.36175 5.00787 7.70316 4.99976H7.82161H8.02019H8.10032C8.74816 4.99976 8.7483 5.02139 8.75178 5.56478L8.75178 5.56513C8.75337 5.74768 8.75424 5.84699 8.80325 5.90692C8.86174 5.97843 8.98878 5.99386 9.26739 6.02771C9.66105 6.0764 10.0338 6.16567 10.3961 6.29011C10.5947 6.35774 10.6714 6.46594 10.6086 6.63096C10.5847 6.69522 10.5611 6.75967 10.5374 6.82416L10.5372 6.82471C10.4712 7.00436 10.4052 7.18432 10.3334 7.36134C10.2707 7.50742 10.2115 7.57505 10.1 7.57505C10.0373 7.57505 9.96066 7.55611 9.86311 7.51824C9.36145 7.32888 8.83539 7.23691 8.28496 7.23691C8.21528 7.23691 8.14212 7.23961 8.07244 7.24232C7.90871 7.25043 7.74845 7.26666 7.59517 7.31806C7.05169 7.50201 6.9646 7.96729 7.42794 8.25404C7.66136 8.40012 7.92961 8.50291 8.20483 8.59218L8.33665 8.63437L8.33668 8.63438C8.7733 8.77397 9.20808 8.91296 9.62273 9.08993C11.0581 9.71211 11.4482 11.1269 10.4275 12.0899Z" fill="#333333"/>
</svg>
