<svg width="16" height="16" viewBox="0 0 16 16" fill="none" xmlns="http://www.w3.org/2000/svg">
<path fill-rule="evenodd" clip-rule="evenodd" d="M3 0.999756V1.99976H2C0.895431 1.99976 0 2.89519 0 3.99976V13.9998C0 15.1043 0.895431 15.9998 2 15.9998H14C15.1046 15.9998 16 15.1043 16 13.9998V3.99976C16 2.89519 15.1046 1.99976 14 1.99976H13V0.999756C13 0.447471 12.5523 -0.000244141 12 -0.000244141H11C10.4477 -0.000244141 10 0.447471 10 0.999756V1.99976H6V0.999756C6 0.447471 5.55228 -0.000244141 5 -0.000244141H4C3.44772 -0.000244141 3 0.447471 3 0.999756ZM14 13.4998C14 13.7759 13.7761 13.9998 13.5 13.9998H2.5C2.22386 13.9998 2 13.7759 2 13.4998V5.49976C2 5.22361 2.22386 4.99976 2.5 4.99976H13.5C13.7761 4.99976 14 5.22361 14 5.49976V13.4998ZM5.95376 11.5275L6.19509 10.1832L5.15694 9.22851C5.01479 9.09838 4.96438 8.90359 5.02562 8.72653C5.08687 8.54959 5.24969 8.42005 5.4464 8.39287L6.88429 8.193L7.53127 6.97216C7.61986 6.8055 7.80171 6.69995 7.99981 6.69995C8.19829 6.69995 8.38027 6.8055 8.4681 6.97216L9.11572 8.193L10.5536 8.39298C10.7499 8.42017 10.9135 8.54971 10.9746 8.72665C11.0355 8.90371 10.985 9.09826 10.8431 9.22863L9.80542 10.1833L10.0465 11.5276C10.0796 11.7114 9.99899 11.8967 9.83844 12.0063C9.74733 12.0682 9.63933 12.1 9.53108 12.1C9.44841 12.1 9.36486 12.0813 9.28862 12.0442L7.99994 11.4131L6.71126 12.044C6.53572 12.1303 6.32237 12.1157 6.16169 12.0062C6.00127 11.8965 5.92087 11.7113 5.95376 11.5275Z" fill="#333333"/>
</svg>
