<svg width="16" height="16" viewBox="0 0 16 16" fill="none" xmlns="http://www.w3.org/2000/svg">
<path fill-rule="evenodd" clip-rule="evenodd" d="M6.39998 0H1.06665V1H4.26665V2H1.06665V3H4.26665V4H1.06665V5H4.26665V6H1.06665V7H4.26665V8H1.06665V9H4.26665V10H1.06665V11H4.26665V12H1.06665V13H4.26665V14H1.06665V16H6.39998V0ZM11.7333 4L7.46665 2.00259V5H10.6667V6H7.46665V7H10.6667V8H7.46665V9H10.6667V10H7.46665V11H10.6667V12H7.46665V13H10.6667V14H7.46665V16H11.7333V4ZM12.8 7H14.9333V16H12.8V14H13.8667V13H12.8V12H13.8667V11H12.8V10H13.8667V9H12.8V7Z" fill="#333333"/>
</svg>
