<svg width="16" height="16" viewBox="0 0 16 16" fill="none" xmlns="http://www.w3.org/2000/svg">
<path fill-rule="evenodd" clip-rule="evenodd" d="M3.33333 1.23077L1 0V16L3.33333 14.7692L5.66667 16L8 14.7692L10.3333 16L12.6667 14.7692L15 16V0L12.6667 1.23077L10.3333 0L8 1.23077L5.66667 0L3.33333 1.23077ZM9.14231 11.4302C9.71419 11.303 10.2044 11.0517 10.5809 10.6789C11.6217 9.65024 11.2238 8.13902 9.76037 7.47443C9.33758 7.2854 8.89426 7.13692 8.44906 6.98782C8.40428 6.97282 8.35947 6.95781 8.31467 6.94276C8.03405 6.8474 7.76054 6.7376 7.52255 6.58157C7.05012 6.27528 7.13892 5.77828 7.69305 5.58179C7.84934 5.52689 8.01274 5.50955 8.17969 5.50088C8.25073 5.49799 8.32532 5.4951 8.39636 5.4951C8.9576 5.4951 9.49396 5.59335 10.0055 5.79562C10.1049 5.83607 10.1831 5.8563 10.247 5.8563C10.3607 5.8563 10.4211 5.78406 10.485 5.62802C10.5581 5.43892 10.6255 5.24669 10.6928 5.05479C10.717 4.98571 10.7412 4.91668 10.7656 4.84785C10.8296 4.67159 10.7514 4.55601 10.5489 4.48377C10.1795 4.35085 9.79944 4.2555 9.39806 4.20349C9.11809 4.16785 8.98823 4.15133 8.92745 4.07774C8.87488 4.01409 8.87399 3.90773 8.87235 3.70938L8.87234 3.70901C8.86879 3.12857 8.86865 3.10547 8.2081 3.10547H8.1264H7.92393H7.80316C7.45506 3.11414 7.39822 3.16326 7.38757 3.44643C7.38224 3.544 7.38291 3.63994 7.38357 3.73548C7.38379 3.76726 7.38401 3.799 7.38401 3.83074C7.38401 4.20249 7.38054 4.20351 6.9501 4.32952L6.93645 4.33352C5.86016 4.65136 5.19592 5.24661 5.12488 6.20015C5.06094 7.04389 5.60086 7.61313 6.45336 8.02922C6.81564 8.20643 7.20321 8.33288 7.59168 8.45962C7.76694 8.5168 7.94237 8.57403 8.11575 8.63602C8.33243 8.71403 8.542 8.80361 8.72316 8.92497C9.25952 9.28327 9.16007 9.8814 8.52424 10.1068C8.27204 10.1964 8.01274 10.2368 7.74633 10.2368C7.65042 10.2368 7.55452 10.231 7.45861 10.2224C6.88672 10.1646 6.34325 10.0432 5.83175 9.8265C5.72163 9.78027 5.63993 9.75426 5.57599 9.75426C5.46588 9.75426 5.40549 9.82939 5.34156 9.99698C5.25275 10.2253 5.17461 10.4564 5.09646 10.6876C4.99345 10.9996 5.03252 11.0719 5.39484 11.2164C5.85661 11.3984 6.35391 11.4909 6.8583 11.5573C7.25259 11.6093 7.2668 11.6209 7.27035 11.9561C7.27035 12.1063 7.27035 12.2595 7.2739 12.4097C7.2739 12.6004 7.38757 12.7131 7.62911 12.716C7.75694 12.7189 7.88478 12.7189 8.01261 12.7189H8.01274C8.15837 12.7189 8.30401 12.716 8.44965 12.7131C8.67343 12.7074 8.79065 12.6091 8.79065 12.4242C8.79154 12.3719 8.79288 12.3198 8.79422 12.2678C8.79821 12.1128 8.80218 11.9587 8.7942 11.8029C8.77999 11.592 8.89366 11.4851 9.14231 11.4302Z" fill="#657077"/>
</svg>
