<svg width="17" height="16" viewBox="0 0 17 16" fill="none" xmlns="http://www.w3.org/2000/svg">
<path fill-rule="evenodd" clip-rule="evenodd" d="M11.9979 -0.000244141H5.99792V0.998779V0.999756V1.99878H11.9979V0.999756V0.998779V-0.000244141ZM12.9979 0.999756V1.99878V2.99878H11.9979H5.99792H4.99792V1.99878V0.999756H3.49792C2.6695 0.999756 1.99792 1.67133 1.99792 2.49976V14.4998C1.99792 15.3282 2.6695 15.9998 3.49792 15.9998H14.4979C15.3264 15.9998 15.9979 15.3282 15.9979 14.4998V2.49976C15.9979 1.67133 15.3264 0.999756 14.4979 0.999756H12.9979ZM11.4254 12.0899C11.0561 12.4389 10.5754 12.6742 10.0145 12.7933C9.77061 12.8447 9.65913 12.9448 9.67307 13.1422C9.68089 13.2881 9.677 13.4324 9.67309 13.5774L9.67308 13.5775C9.67177 13.6261 9.67046 13.6749 9.66958 13.7238C9.66958 13.897 9.55462 13.9889 9.33514 13.9943L9.33499 13.9943C9.1922 13.9971 9.04942 13.9998 8.90663 13.9998C8.78121 13.9998 8.6558 13.9998 8.53038 13.9971C8.29348 13.9943 8.182 13.8888 8.182 13.7103C8.17852 13.5696 8.17852 13.4263 8.17852 13.2856C8.17503 12.9718 8.1611 12.961 7.7744 12.9123C7.2797 12.8501 6.79197 12.7635 6.33908 12.5931C5.98373 12.4578 5.94541 12.3902 6.04644 12.098L6.04644 12.098L6.04644 12.098C6.12309 11.8816 6.19973 11.6652 6.28682 11.4515C6.34953 11.2946 6.40875 11.2243 6.51675 11.2243C6.57946 11.2243 6.65958 11.2486 6.76758 11.2919C7.26925 11.4948 7.80227 11.6084 8.36316 11.6625C8.45722 11.6706 8.55128 11.676 8.64535 11.676C8.90663 11.676 9.16095 11.6382 9.4083 11.5543C10.0319 11.3433 10.1294 10.7833 9.60339 10.4479C9.42572 10.3343 9.22017 10.2504 9.00766 10.1774C8.83763 10.1194 8.66557 10.0658 8.49369 10.0123L8.49367 10.0123C8.11267 9.8936 7.73255 9.77522 7.37725 9.60931C6.54114 9.21977 6.0116 8.68686 6.07431 7.89696C6.14398 7.00426 6.79545 6.44701 7.85104 6.14944L7.86443 6.1457C8.28659 6.02773 8.29 6.02677 8.29 5.67875C8.29 5.64903 8.28978 5.61932 8.28957 5.58956C8.28891 5.50012 8.28826 5.4103 8.29348 5.31896C8.30394 5.05386 8.35968 5.00787 8.70109 4.99976H8.81954H9.01811H9.09824C9.74609 4.99976 9.74623 5.02139 9.74971 5.56478L9.74971 5.56513C9.7513 5.74768 9.75216 5.84699 9.80118 5.90692C9.85966 5.97843 9.9867 5.99386 10.2653 6.02771C10.659 6.0764 11.0317 6.16567 11.3941 6.29011C11.5926 6.35774 11.6693 6.46594 11.6066 6.63096C11.5827 6.69522 11.559 6.75967 11.5353 6.82416L11.5351 6.82471C11.4691 7.00436 11.4031 7.18432 11.3314 7.36134C11.2686 7.50742 11.2094 7.57505 11.0979 7.57505C11.0352 7.57505 10.9586 7.55611 10.861 7.51824C10.3594 7.32888 9.83332 7.23691 9.28288 7.23691C9.2132 7.23691 9.14005 7.23961 9.07037 7.24232C8.90663 7.25043 8.74638 7.26666 8.59309 7.31806C8.04962 7.50201 7.96252 7.96729 8.42587 8.25404C8.65928 8.40012 8.92753 8.50291 9.20275 8.59218L9.33457 8.63437L9.3346 8.63438C9.77122 8.77397 10.206 8.91296 10.6207 9.08993C12.056 9.71211 12.4462 11.1269 11.4254 12.0899Z" fill="#657077"/>
</svg>
