<svg width="16" height="16" viewBox="0 0 16 16" fill="none" xmlns="http://www.w3.org/2000/svg">
<path fill-rule="evenodd" clip-rule="evenodd" d="M9.00322 0.979688V1.99511H7.00238V0.979688H5.86274C5.59221 0.979688 5.37309 0.760377 5.37309 0.489844C5.37309 0.21931 5.5924 0 5.86294 0H7.00238H9.00322H10.1295C10.4001 0 10.6194 0.21931 10.6194 0.489844C10.6194 0.760377 10.4003 0.979688 10.1298 0.979688H9.00322ZM14.272 3.84054L14.7849 3.31404C15.0554 3.03663 15.0499 2.59296 14.7725 2.3224L13.9682 1.57521C13.6907 1.30465 13.2471 1.31018 12.9765 1.58758L12.4638 2.11235C13.1431 2.55933 13.5143 2.8527 14.0192 3.49887C14.1094 3.61231 14.1926 3.7249 14.272 3.84054ZM15 8.99912C15 12.8657 11.8661 16 8.00001 16C4.13389 16 1 12.8657 1 8.99912C1 5.44613 3.64865 2.50982 7.08034 2.05957C7.38164 2.02102 7.6882 2 8.00001 2C8.31184 2 8.6184 2.01927 8.91968 2.05957C9.66418 2.15768 10.3736 2.37142 11.0253 2.68502C11.8924 3.10199 12.6614 3.69065 13.2851 4.40896C14.3536 5.63709 15 7.2419 15 8.99912ZM12.2021 5.84369C11.6285 5.0774 10.8526 4.47595 9.95282 4.11824C9.57622 3.96743 9.18044 3.86047 8.76717 3.80261C8.52831 3.76754 8.28246 3.75 8.03313 3.75H8V6.69414V8.9737V9H8.03313H9.81161H13.25C13.25 8.73873 13.2308 8.48096 13.1942 8.23021C13.0652 7.34294 12.7147 6.52755 12.2021 5.84369Z" fill="#333333"/>
</svg>
