<svg width="16" height="16" viewBox="0 0 16 16" fill="none" xmlns="http://www.w3.org/2000/svg">
<path fill-rule="evenodd" clip-rule="evenodd" d="M15 16V14.2148C15 14.2148 10.5762 4.32452 10.4608 4.13148C10.0845 3.50305 9.67099 3.07992 9.00182 2.88821V0.795465C9.00182 0.356243 8.44735 0 7.99159 0C7.53582 0 6.99963 0.356243 6.99963 0.795465V2.89823C6.97275 2.90641 6.94781 2.91385 6.9243 2.92087L6.92426 2.92088C6.77835 2.9644 6.68753 2.99149 6.52996 3.07927C5.17751 3.83146 4.8179 5.75986 5.59841 7.06179C5.72408 7.24029 6.46594 8.12236 6.46594 8.12236L12.7956 15.223L15 16ZM4.52218 6.55462L1 14.1675V16L3.17334 15.2108L7.39062 10.674C7.39062 10.674 4.94584 7.69929 4.87533 7.58233C4.75025 7.37309 4.52218 6.55462 4.52218 6.55462ZM9.6 5.50021C9.6 4.67159 8.92831 4 8.1 4C7.27169 4 6.6 4.67117 6.6 5.49979C6.6 6.32841 7.27169 7 8.1 7C8.92831 7 9.6 6.32883 9.6 5.50021Z" fill="#333333"/>
</svg>
